<mxfile host="app.diagrams.net" modified="2021-12-15T17:19:10.694Z" agent="5.0 (X11)" etag="e_BmeDlM3jZJGr7Vjz1C" version="15.9.6" type="github" pages="7">
  <diagram name="Overview" id="X1xkp8taMzy9Tt-fy2y1">
    <mxGraphModel dx="2200" dy="764" grid="1" gridSize="10" guides="1" tooltips="1" connect="1" arrows="1" fold="1" page="1" pageScale="1" pageWidth="850" pageHeight="1100" background="none" math="0" shadow="0">
      <root>
        <mxCell id="wn8Pml6cE75ornkcrmNq-0" />
        <mxCell id="wn8Pml6cE75ornkcrmNq-1" parent="wn8Pml6cE75ornkcrmNq-0" />
        <mxCell id="MDNQT7hqEurYdyj0TWIo-0" value="MainProcess" style="rounded=0;whiteSpace=wrap;html=1;sketch=0;strokeColor=#b85450;fillColor=#f8cecc;" parent="wn8Pml6cE75ornkcrmNq-1" vertex="1">
          <mxGeometry x="-480" y="250" width="150.25" height="50" as="geometry" />
        </mxCell>
        <mxCell id="MDNQT7hqEurYdyj0TWIo-3" value="Message Queue" style="edgeStyle=orthogonalEdgeStyle;curved=0;rounded=1;sketch=0;orthogonalLoop=1;jettySize=auto;html=1;fontColor=#143642;strokeColor=#A8201A;fillColor=#FAE5C7;" parent="wn8Pml6cE75ornkcrmNq-1" source="MDNQT7hqEurYdyj0TWIo-1" target="MDNQT7hqEurYdyj0TWIo-0" edge="1">
          <mxGeometry relative="1" as="geometry" />
        </mxCell>
        <mxCell id="MDNQT7hqEurYdyj0TWIo-1" value="dSensors" style="rounded=0;whiteSpace=wrap;html=1;sketch=0;strokeColor=#6c8ebf;fillColor=#dae8fc;" parent="wn8Pml6cE75ornkcrmNq-1" vertex="1">
          <mxGeometry x="-480" y="350" width="150.25" height="50" as="geometry" />
        </mxCell>
      </root>
    </mxGraphModel>
  </diagram>
  <diagram id="HcdjmoZaPBOQuIixv0jm" name="ThreadsPriority">
    <mxGraphModel dx="540" dy="306" grid="1" gridSize="10" guides="1" tooltips="1" connect="1" arrows="1" fold="1" page="1" pageScale="1" pageWidth="850" pageHeight="1100" math="0" shadow="0">
      <root>
        <mxCell id="skMfZww8q4JZ88V34bja-0" />
        <mxCell id="skMfZww8q4JZ88V34bja-1" parent="skMfZww8q4JZ88V34bja-0" />
        <mxCell id="rdfeNp6-GMCc2yEgZiX8-2" value="PIRisr" style="rounded=1;whiteSpace=wrap;html=1;fillColor=#f8cecc;strokeColor=#b85450;" parent="skMfZww8q4JZ88V34bja-1" vertex="1">
          <mxGeometry x="160" y="200" width="80" height="30" as="geometry" />
        </mxCell>
        <mxCell id="rdfeNp6-GMCc2yEgZiX8-3" value="tLoraRecv" style="rounded=1;whiteSpace=wrap;html=1;fillColor=#ffe6cc;strokeColor=#d79b00;" parent="skMfZww8q4JZ88V34bja-1" vertex="1">
          <mxGeometry x="240" y="200" width="80" height="30" as="geometry" />
        </mxCell>
        <mxCell id="rdfeNp6-GMCc2yEgZiX8-4" value="tRecvSensor" style="rounded=1;whiteSpace=wrap;html=1;fillColor=#fff2cc;strokeColor=#d6b656;" parent="skMfZww8q4JZ88V34bja-1" vertex="1">
          <mxGeometry x="160" y="240" width="80" height="30" as="geometry" />
        </mxCell>
        <mxCell id="rdfeNp6-GMCc2yEgZiX8-5" value="tCamera" style="rounded=1;whiteSpace=wrap;html=1;fillColor=#d5e8d4;strokeColor=#82b366;" parent="skMfZww8q4JZ88V34bja-1" vertex="1">
          <mxGeometry x="160" y="280" width="160" height="30" as="geometry" />
        </mxCell>
        <mxCell id="rdfeNp6-GMCc2yEgZiX8-6" value="tLoraSend" style="rounded=1;whiteSpace=wrap;html=1;fillColor=#f5f5f5;strokeColor=#666666;fontColor=#333333;" parent="skMfZww8q4JZ88V34bja-1" vertex="1">
          <mxGeometry x="240" y="240" width="80" height="30" as="geometry" />
        </mxCell>
        <mxCell id="rdfeNp6-GMCc2yEgZiX8-7" value="tIdle" style="rounded=1;whiteSpace=wrap;html=1;fillColor=#e1d5e7;strokeColor=#9673a6;" parent="skMfZww8q4JZ88V34bja-1" vertex="1">
          <mxGeometry x="160" y="320" width="160" height="30" as="geometry" />
        </mxCell>
        <mxCell id="rdfeNp6-GMCc2yEgZiX8-8" value="" style="shape=flexArrow;endArrow=classic;html=1;rounded=0;fillColor=#f5f5f5;gradientColor=#b3b3b3;strokeColor=#666666;" parent="skMfZww8q4JZ88V34bja-1" edge="1">
          <mxGeometry width="50" height="50" relative="1" as="geometry">
            <mxPoint x="360" y="350" as="sourcePoint" />
            <mxPoint x="360" y="200" as="targetPoint" />
          </mxGeometry>
        </mxCell>
        <mxCell id="rdfeNp6-GMCc2yEgZiX8-9" value="&lt;div&gt;Priority&lt;/div&gt;&lt;div&gt;Level&lt;/div&gt;" style="edgeLabel;html=1;align=center;verticalAlign=middle;resizable=0;points=[];labelBackgroundColor=default;fontStyle=1" parent="rdfeNp6-GMCc2yEgZiX8-8" vertex="1" connectable="0">
          <mxGeometry x="0.5393" y="-2" relative="1" as="geometry">
            <mxPoint x="28" y="46" as="offset" />
          </mxGeometry>
        </mxCell>
      </root>
    </mxGraphModel>
  </diagram>
  <diagram id="p-rT-tHLwDtnmiwZlNcI" name="boot">
    <mxGraphModel dx="1621" dy="437" grid="1" gridSize="10" guides="1" tooltips="1" connect="1" arrows="1" fold="1" page="1" pageScale="1" pageWidth="850" pageHeight="1100" math="0" shadow="0">
      <root>
        <mxCell id="c039ahC2h3WBDTneyoFS-0" />
        <mxCell id="c039ahC2h3WBDTneyoFS-1" parent="c039ahC2h3WBDTneyoFS-0" />
        <mxCell id="vRmglNNV83ifhox25MPV-0" style="edgeStyle=orthogonalEdgeStyle;curved=0;rounded=1;sketch=0;orthogonalLoop=1;jettySize=auto;html=1;exitX=0.5;exitY=1;exitDx=0;exitDy=0;entryX=0.5;entryY=0;entryDx=0;entryDy=0;fontColor=#143642;strokeColor=#A8201A;fillColor=#FAE5C7;" parent="c039ahC2h3WBDTneyoFS-1" source="vRmglNNV83ifhox25MPV-1" edge="1">
          <mxGeometry relative="1" as="geometry">
            <mxPoint x="-673.99" y="140" as="targetPoint" />
          </mxGeometry>
        </mxCell>
        <mxCell id="vRmglNNV83ifhox25MPV-1" value="Start-Up" style="ellipse;whiteSpace=wrap;html=1;fillColor=#FAE5C7;strokeColor=#0F8B8D;fontColor=#143642;fontStyle=1" parent="c039ahC2h3WBDTneyoFS-1" vertex="1">
          <mxGeometry x="-736.99" y="50" width="125.5" height="50" as="geometry" />
        </mxCell>
        <mxCell id="ow29j2xqtTPBDxcSRLei-0" style="edgeStyle=orthogonalEdgeStyle;rounded=1;orthogonalLoop=1;jettySize=auto;html=1;exitX=0.5;exitY=1;exitDx=0;exitDy=0;entryX=0.5;entryY=0;entryDx=0;entryDy=0;strokeColor=#A8201A;" parent="c039ahC2h3WBDTneyoFS-1" target="vRmglNNV83ifhox25MPV-9" edge="1">
          <mxGeometry relative="1" as="geometry">
            <mxPoint x="-673.99" y="170" as="sourcePoint" />
          </mxGeometry>
        </mxCell>
        <mxCell id="vRmglNNV83ifhox25MPV-8" value="end" style="ellipse;whiteSpace=wrap;html=1;fillColor=#FAE5C7;strokeColor=#0F8B8D;fontColor=#143642;fontStyle=1" parent="c039ahC2h3WBDTneyoFS-1" vertex="1">
          <mxGeometry x="-697.99" y="437" width="48" height="30" as="geometry" />
        </mxCell>
        <mxCell id="4aw1j0yw5aGHPEclKmmO-19" style="edgeStyle=orthogonalEdgeStyle;rounded=1;orthogonalLoop=1;jettySize=auto;html=1;exitX=0.5;exitY=1;exitDx=0;exitDy=0;entryX=0.5;entryY=0;entryDx=0;entryDy=0;strokeColor=#A8201A;" parent="c039ahC2h3WBDTneyoFS-1" source="vRmglNNV83ifhox25MPV-9" target="4aw1j0yw5aGHPEclKmmO-14" edge="1">
          <mxGeometry relative="1" as="geometry" />
        </mxCell>
        <mxCell id="vRmglNNV83ifhox25MPV-9" value="Create &lt;span style=&quot;font-weight: normal&quot;&gt;Communication&lt;/span&gt;" style="shape=process;whiteSpace=wrap;html=1;backgroundOutline=1;rounded=0;sketch=0;fontColor=#143642;strokeColor=#0F8B8D;fillColor=#FAE5C7;fontStyle=1" parent="c039ahC2h3WBDTneyoFS-1" vertex="1">
          <mxGeometry x="-749.24" y="190" width="150" height="30" as="geometry" />
        </mxCell>
        <mxCell id="4aw1j0yw5aGHPEclKmmO-20" style="edgeStyle=orthogonalEdgeStyle;rounded=1;orthogonalLoop=1;jettySize=auto;html=1;exitX=0.5;exitY=1;exitDx=0;exitDy=0;entryX=0.5;entryY=0;entryDx=0;entryDy=0;strokeColor=#A8201A;" parent="c039ahC2h3WBDTneyoFS-1" source="4aw1j0yw5aGHPEclKmmO-14" target="4aw1j0yw5aGHPEclKmmO-15" edge="1">
          <mxGeometry relative="1" as="geometry" />
        </mxCell>
        <mxCell id="4aw1j0yw5aGHPEclKmmO-14" value="Create &lt;span style=&quot;font-weight: normal&quot;&gt;Pir&lt;/span&gt;" style="shape=process;whiteSpace=wrap;html=1;backgroundOutline=1;rounded=0;sketch=0;fontColor=#143642;strokeColor=#0F8B8D;fillColor=#FAE5C7;fontStyle=1" parent="c039ahC2h3WBDTneyoFS-1" vertex="1">
          <mxGeometry x="-748.99" y="240" width="150" height="30" as="geometry" />
        </mxCell>
        <mxCell id="4aw1j0yw5aGHPEclKmmO-21" style="edgeStyle=orthogonalEdgeStyle;rounded=1;orthogonalLoop=1;jettySize=auto;html=1;exitX=0.5;exitY=1;exitDx=0;exitDy=0;entryX=0.5;entryY=0;entryDx=0;entryDy=0;strokeColor=#A8201A;" parent="c039ahC2h3WBDTneyoFS-1" source="4aw1j0yw5aGHPEclKmmO-15" target="4aw1j0yw5aGHPEclKmmO-16" edge="1">
          <mxGeometry relative="1" as="geometry" />
        </mxCell>
        <mxCell id="4aw1j0yw5aGHPEclKmmO-15" value="Create &lt;span style=&quot;font-weight: normal&quot;&gt;Ldr&lt;/span&gt;" style="shape=process;whiteSpace=wrap;html=1;backgroundOutline=1;rounded=0;sketch=0;fontColor=#143642;strokeColor=#0F8B8D;fillColor=#FAE5C7;fontStyle=1" parent="c039ahC2h3WBDTneyoFS-1" vertex="1">
          <mxGeometry x="-748.99" y="290" width="150" height="30" as="geometry" />
        </mxCell>
        <mxCell id="4aw1j0yw5aGHPEclKmmO-22" style="edgeStyle=orthogonalEdgeStyle;rounded=1;orthogonalLoop=1;jettySize=auto;html=1;exitX=0.5;exitY=1;exitDx=0;exitDy=0;entryX=0.5;entryY=0;entryDx=0;entryDy=0;strokeColor=#A8201A;" parent="c039ahC2h3WBDTneyoFS-1" source="4aw1j0yw5aGHPEclKmmO-16" target="4aw1j0yw5aGHPEclKmmO-17" edge="1">
          <mxGeometry relative="1" as="geometry" />
        </mxCell>
        <mxCell id="4aw1j0yw5aGHPEclKmmO-16" value="Create &lt;span style=&quot;font-weight: normal&quot;&gt;FailureDetector&lt;/span&gt;" style="shape=process;whiteSpace=wrap;html=1;backgroundOutline=1;rounded=0;sketch=0;fontColor=#143642;strokeColor=#0F8B8D;fillColor=#FAE5C7;fontStyle=1" parent="c039ahC2h3WBDTneyoFS-1" vertex="1">
          <mxGeometry x="-748.99" y="340" width="150" height="30" as="geometry" />
        </mxCell>
        <mxCell id="4aw1j0yw5aGHPEclKmmO-18" style="edgeStyle=orthogonalEdgeStyle;rounded=1;orthogonalLoop=1;jettySize=auto;html=1;exitX=0.5;exitY=1;exitDx=0;exitDy=0;entryX=0.5;entryY=0;entryDx=0;entryDy=0;strokeColor=#A8201A;" parent="c039ahC2h3WBDTneyoFS-1" source="4aw1j0yw5aGHPEclKmmO-17" target="vRmglNNV83ifhox25MPV-8" edge="1">
          <mxGeometry relative="1" as="geometry" />
        </mxCell>
        <mxCell id="4aw1j0yw5aGHPEclKmmO-17" value="Create &lt;span style=&quot;font-weight: normal&quot;&gt;Camera&lt;/span&gt;" style="shape=process;whiteSpace=wrap;html=1;backgroundOutline=1;rounded=0;sketch=0;fontColor=#143642;strokeColor=#0F8B8D;fillColor=#FAE5C7;fontStyle=1" parent="c039ahC2h3WBDTneyoFS-1" vertex="1">
          <mxGeometry x="-748.99" y="390" width="150" height="30" as="geometry" />
        </mxCell>
        <mxCell id="sYZt5RRps-2CDF5X2aS--0" value="&lt;b&gt;Create&lt;/b&gt; Lamp" style="rounded=0;whiteSpace=wrap;html=1;sketch=0;fontColor=#143642;strokeColor=#0F8B8D;fillColor=#FAE5C7;" parent="c039ahC2h3WBDTneyoFS-1" vertex="1">
          <mxGeometry x="-749.49" y="140" width="150.25" height="30" as="geometry" />
        </mxCell>
        <mxCell id="C_XTckezgCInhXYzNWuD-0" value="&lt;b&gt;Create&lt;/b&gt; Communication" style="rounded=0;whiteSpace=wrap;html=1;sketch=0;fontColor=#143642;strokeColor=#0F8B8D;fillColor=#FAE5C7;" vertex="1" parent="c039ahC2h3WBDTneyoFS-1">
          <mxGeometry x="-748.99" y="190" width="150.25" height="30" as="geometry" />
        </mxCell>
        <mxCell id="C_XTckezgCInhXYzNWuD-1" value="&lt;b&gt;Create&lt;/b&gt; Pir" style="rounded=0;whiteSpace=wrap;html=1;sketch=0;fontColor=#143642;strokeColor=#0F8B8D;fillColor=#FAE5C7;" vertex="1" parent="c039ahC2h3WBDTneyoFS-1">
          <mxGeometry x="-749.49" y="240" width="150.25" height="30" as="geometry" />
        </mxCell>
        <mxCell id="C_XTckezgCInhXYzNWuD-2" value="&lt;b&gt;Create&lt;/b&gt; Ldr" style="rounded=0;whiteSpace=wrap;html=1;sketch=0;fontColor=#143642;strokeColor=#0F8B8D;fillColor=#FAE5C7;" vertex="1" parent="c039ahC2h3WBDTneyoFS-1">
          <mxGeometry x="-748.99" y="290" width="150.25" height="30" as="geometry" />
        </mxCell>
        <mxCell id="C_XTckezgCInhXYzNWuD-3" value="&lt;b&gt;Create&lt;/b&gt; FailureDetector" style="rounded=0;whiteSpace=wrap;html=1;sketch=0;fontColor=#143642;strokeColor=#0F8B8D;fillColor=#FAE5C7;" vertex="1" parent="c039ahC2h3WBDTneyoFS-1">
          <mxGeometry x="-748.99" y="340" width="150.25" height="30" as="geometry" />
        </mxCell>
        <mxCell id="C_XTckezgCInhXYzNWuD-4" value="&lt;b&gt;Create&lt;/b&gt; Camera" style="rounded=0;whiteSpace=wrap;html=1;sketch=0;fontColor=#143642;strokeColor=#0F8B8D;fillColor=#FAE5C7;" vertex="1" parent="c039ahC2h3WBDTneyoFS-1">
          <mxGeometry x="-748.99" y="390" width="150.25" height="30" as="geometry" />
        </mxCell>
      </root>
    </mxGraphModel>
  </diagram>
  <diagram name="tLoraRecv" id="0WbtY79F4Cu1o5Ce8Okv">
    <mxGraphModel dx="1781" dy="497" grid="1" gridSize="10" guides="1" tooltips="1" connect="1" arrows="1" fold="1" page="1" pageScale="1" pageWidth="850" pageHeight="1100" background="none" math="0" shadow="0">
      <root>
        <mxCell id="Pw5umfQ0hP8HBKfbfsgT-0" />
        <mxCell id="Pw5umfQ0hP8HBKfbfsgT-1" parent="Pw5umfQ0hP8HBKfbfsgT-0" />
        <mxCell id="Pw5umfQ0hP8HBKfbfsgT-2" style="edgeStyle=orthogonalEdgeStyle;curved=0;rounded=1;sketch=0;orthogonalLoop=1;jettySize=auto;html=1;exitX=0.5;exitY=1;exitDx=0;exitDy=0;entryX=0.5;entryY=0;entryDx=0;entryDy=0;fontColor=#143642;strokeColor=#A8201A;fillColor=#FAE5C7;" parent="Pw5umfQ0hP8HBKfbfsgT-1" source="Pw5umfQ0hP8HBKfbfsgT-3" target="Pw5umfQ0hP8HBKfbfsgT-5" edge="1">
          <mxGeometry relative="1" as="geometry" />
        </mxCell>
        <mxCell id="Pw5umfQ0hP8HBKfbfsgT-3" value="tLoraRecv" style="ellipse;whiteSpace=wrap;html=1;fillColor=#FAE5C7;strokeColor=#0F8B8D;fontColor=#143642;fontStyle=1" parent="Pw5umfQ0hP8HBKfbfsgT-1" vertex="1">
          <mxGeometry x="-488" y="70" width="125.5" height="50" as="geometry" />
        </mxCell>
        <mxCell id="Pw5umfQ0hP8HBKfbfsgT-4" style="edgeStyle=orthogonalEdgeStyle;curved=0;rounded=1;sketch=0;orthogonalLoop=1;jettySize=auto;html=1;exitX=0.5;exitY=1;exitDx=0;exitDy=0;entryX=0.5;entryY=0;entryDx=0;entryDy=0;fontColor=#143642;strokeColor=#A8201A;fillColor=#FAE5C7;" parent="Pw5umfQ0hP8HBKfbfsgT-1" source="Pw5umfQ0hP8HBKfbfsgT-5" edge="1">
          <mxGeometry relative="1" as="geometry">
            <mxPoint x="-425" y="200" as="targetPoint" />
          </mxGeometry>
        </mxCell>
        <mxCell id="Pw5umfQ0hP8HBKfbfsgT-5" value="" style="ellipse;whiteSpace=wrap;html=1;aspect=fixed;rounded=0;sketch=0;fontColor=#143642;strokeColor=#0F8B8D;fillColor=#FAE5C7;" parent="Pw5umfQ0hP8HBKfbfsgT-1" vertex="1">
          <mxGeometry x="-435" y="160" width="20" height="20" as="geometry" />
        </mxCell>
        <mxCell id="Pw5umfQ0hP8HBKfbfsgT-8" value="Returns &lt;i&gt;message&lt;/i&gt;" style="edgeStyle=orthogonalEdgeStyle;curved=0;rounded=1;sketch=0;orthogonalLoop=1;jettySize=auto;html=1;fontColor=#143642;strokeColor=#A8201A;fillColor=#FAE5C7;entryX=0.5;entryY=0;entryDx=0;entryDy=0;exitX=0.5;exitY=1;exitDx=0;exitDy=0;" parent="Pw5umfQ0hP8HBKfbfsgT-1" target="iNUouUhRTITk8NM0t00v-0" edge="1" source="Pw5umfQ0hP8HBKfbfsgT-15">
          <mxGeometry relative="1" as="geometry">
            <mxPoint x="-425" y="299.9999999999999" as="sourcePoint" />
            <mxPoint x="-425.25" y="350" as="targetPoint" />
          </mxGeometry>
        </mxCell>
        <mxCell id="4tTFrwctF4CoQ40aPv5f-1" style="edgeStyle=orthogonalEdgeStyle;rounded=1;sketch=0;orthogonalLoop=1;jettySize=auto;html=1;exitX=0.5;exitY=1;exitDx=0;exitDy=0;entryX=0;entryY=0.5;entryDx=0;entryDy=0;fontColor=#143642;strokeColor=#A8201A;fillColor=#FAE5C7;" parent="Pw5umfQ0hP8HBKfbfsgT-1" source="Pw5umfQ0hP8HBKfbfsgT-10" target="Pw5umfQ0hP8HBKfbfsgT-5" edge="1">
          <mxGeometry relative="1" as="geometry">
            <Array as="points">
              <mxPoint x="-425" y="560" />
              <mxPoint x="-570" y="560" />
              <mxPoint x="-570" y="170" />
            </Array>
          </mxGeometry>
        </mxCell>
        <mxCell id="Pw5umfQ0hP8HBKfbfsgT-10" value="&lt;b&gt;Execute&lt;/b&gt; &lt;i&gt;command&lt;/i&gt;" style="rounded=0;whiteSpace=wrap;html=1;sketch=0;fontColor=#143642;strokeColor=#0F8B8D;fillColor=#FAE5C7;" parent="Pw5umfQ0hP8HBKfbfsgT-1" vertex="1">
          <mxGeometry x="-500" y="500" width="150" height="40" as="geometry" />
        </mxCell>
        <mxCell id="Pw5umfQ0hP8HBKfbfsgT-11" style="edgeStyle=orthogonalEdgeStyle;curved=0;rounded=1;sketch=0;orthogonalLoop=1;jettySize=auto;html=1;exitX=1;exitY=0.5;exitDx=0;exitDy=0;entryX=1;entryY=0.5;entryDx=0;entryDy=0;fontColor=#143642;strokeColor=#A8201A;fillColor=#FAE5C7;" parent="Pw5umfQ0hP8HBKfbfsgT-1" source="iNUouUhRTITk8NM0t00v-0" target="Pw5umfQ0hP8HBKfbfsgT-5" edge="1">
          <mxGeometry relative="1" as="geometry">
            <mxPoint x="-382.7500000000001" y="660" as="sourcePoint" />
            <Array as="points">
              <mxPoint x="-310" y="325" />
              <mxPoint x="-310" y="170" />
            </Array>
          </mxGeometry>
        </mxCell>
        <mxCell id="VHwuukyjGVTCq5X11j34-1" value="No" style="edgeLabel;html=1;align=center;verticalAlign=middle;resizable=0;points=[];fontColor=#143642;" parent="Pw5umfQ0hP8HBKfbfsgT-11" vertex="1" connectable="0">
          <mxGeometry x="-0.9582" y="2" relative="1" as="geometry">
            <mxPoint as="offset" />
          </mxGeometry>
        </mxCell>
        <mxCell id="Pw5umfQ0hP8HBKfbfsgT-15" value="&lt;b&gt;LoraComm.recv()&lt;/b&gt;" style="shape=process;whiteSpace=wrap;html=1;backgroundOutline=1;rounded=0;sketch=0;fontColor=#143642;strokeColor=#0F8B8D;fillColor=#FAE5C7;" parent="Pw5umfQ0hP8HBKfbfsgT-1" vertex="1">
          <mxGeometry x="-500" y="200" width="150" height="40" as="geometry" />
        </mxCell>
        <mxCell id="4tTFrwctF4CoQ40aPv5f-0" value="Returns &lt;i&gt;command&lt;/i&gt;" style="edgeStyle=orthogonalEdgeStyle;rounded=1;sketch=0;orthogonalLoop=1;jettySize=auto;html=1;fontColor=#143642;strokeColor=#A8201A;fillColor=#FAE5C7;" parent="Pw5umfQ0hP8HBKfbfsgT-1" source="Pw5umfQ0hP8HBKfbfsgT-19" target="Pw5umfQ0hP8HBKfbfsgT-10" edge="1">
          <mxGeometry relative="1" as="geometry" />
        </mxCell>
        <mxCell id="Pw5umfQ0hP8HBKfbfsgT-19" value="&lt;b&gt;parse&lt;/b&gt;(&lt;i&gt;message&lt;/i&gt;)" style="shape=process;whiteSpace=wrap;html=1;backgroundOutline=1;rounded=0;sketch=0;fontColor=#143642;strokeColor=#0F8B8D;fillColor=#FAE5C7;" parent="Pw5umfQ0hP8HBKfbfsgT-1" vertex="1">
          <mxGeometry x="-500" y="410" width="150" height="40" as="geometry" />
        </mxCell>
        <mxCell id="HGYTzw5tQV76-3NAWnD_-0" style="edgeStyle=orthogonalEdgeStyle;sketch=0;orthogonalLoop=1;jettySize=auto;html=1;exitX=0;exitY=0.5;exitDx=0;exitDy=0;entryX=0.5;entryY=0;entryDx=0;entryDy=0;fontColor=#143642;strokeColor=#A8201A;fillColor=#FAE5C7;rounded=1;" parent="Pw5umfQ0hP8HBKfbfsgT-1" source="iNUouUhRTITk8NM0t00v-0" target="Pw5umfQ0hP8HBKfbfsgT-19" edge="1">
          <mxGeometry relative="1" as="geometry">
            <Array as="points">
              <mxPoint x="-519.75" y="325" />
              <mxPoint x="-519.75" y="390" />
              <mxPoint x="-424.75" y="390" />
            </Array>
          </mxGeometry>
        </mxCell>
        <mxCell id="VHwuukyjGVTCq5X11j34-2" value="Yes" style="edgeLabel;html=1;align=center;verticalAlign=middle;resizable=0;points=[];fontColor=#143642;" parent="HGYTzw5tQV76-3NAWnD_-0" vertex="1" connectable="0">
          <mxGeometry x="-0.9088" y="-1" relative="1" as="geometry">
            <mxPoint as="offset" />
          </mxGeometry>
        </mxCell>
        <mxCell id="iNUouUhRTITk8NM0t00v-0" value="&lt;div&gt;&lt;i&gt;message&lt;/i&gt; was&lt;/div&gt;&lt;div&gt;received?&lt;br&gt;&lt;/div&gt;" style="rhombus;whiteSpace=wrap;html=1;rounded=0;sketch=0;fontColor=#143642;strokeColor=#0F8B8D;fillColor=#FAE5C7;" parent="Pw5umfQ0hP8HBKfbfsgT-1" vertex="1">
          <mxGeometry x="-474" y="280" width="98" height="90" as="geometry" />
        </mxCell>
      </root>
    </mxGraphModel>
  </diagram>
  <diagram id="oXGI9VJPM_NHcqEIXhrw" name="tRecvSensors">
    <mxGraphModel dx="1975" dy="600" grid="1" gridSize="10" guides="1" tooltips="1" connect="1" arrows="1" fold="1" page="1" pageScale="1" pageWidth="850" pageHeight="1100" math="0" shadow="0">
      <root>
        <mxCell id="OOd3J3-Gxl5Cu8NG0Uni-0" />
        <mxCell id="OOd3J3-Gxl5Cu8NG0Uni-1" parent="OOd3J3-Gxl5Cu8NG0Uni-0" />
        <mxCell id="GCGXlIYydK_MN56B1ds3-3" style="edgeStyle=orthogonalEdgeStyle;curved=0;rounded=1;sketch=0;orthogonalLoop=1;jettySize=auto;html=1;exitX=0.5;exitY=1;exitDx=0;exitDy=0;entryX=0.5;entryY=0;entryDx=0;entryDy=0;fontSize=11;fontColor=#143642;strokeColor=#A8201A;fillColor=#FAE5C7;" parent="OOd3J3-Gxl5Cu8NG0Uni-1" source="2rlOimkvAiwXD3DDtxZt-1" target="GCGXlIYydK_MN56B1ds3-2" edge="1">
          <mxGeometry relative="1" as="geometry" />
        </mxCell>
        <mxCell id="2rlOimkvAiwXD3DDtxZt-1" value="&lt;div&gt;tRecvSensors&lt;/div&gt;" style="ellipse;whiteSpace=wrap;html=1;fillColor=#FAE5C7;strokeColor=#0F8B8D;fontColor=#143642;fontStyle=1" parent="OOd3J3-Gxl5Cu8NG0Uni-1" vertex="1">
          <mxGeometry x="-488.25" y="50" width="125.5" height="50" as="geometry" />
        </mxCell>
        <mxCell id="-UsF7wl5NZM5rKmS7TcJ-1" value="Returns &lt;i&gt;message&lt;/i&gt;" style="edgeStyle=orthogonalEdgeStyle;curved=0;rounded=1;sketch=0;orthogonalLoop=1;jettySize=auto;html=1;exitX=0.5;exitY=1;exitDx=0;exitDy=0;entryX=0.5;entryY=0;entryDx=0;entryDy=0;fontSize=11;fontColor=#143642;strokeColor=#A8201A;fillColor=#FAE5C7;" parent="OOd3J3-Gxl5Cu8NG0Uni-1" source="2rlOimkvAiwXD3DDtxZt-7" target="-UsF7wl5NZM5rKmS7TcJ-0" edge="1">
          <mxGeometry relative="1" as="geometry" />
        </mxCell>
        <mxCell id="2rlOimkvAiwXD3DDtxZt-7" value="&lt;b&gt;Read&lt;/b&gt; from &lt;i&gt;message_queue&lt;/i&gt;" style="rounded=0;whiteSpace=wrap;html=1;sketch=0;fontColor=#143642;strokeColor=#0F8B8D;fillColor=#FAE5C7;" parent="OOd3J3-Gxl5Cu8NG0Uni-1" vertex="1">
          <mxGeometry x="-499.61" y="340" width="150.25" height="40" as="geometry" />
        </mxCell>
        <mxCell id="2rlOimkvAiwXD3DDtxZt-8" value="Returns &lt;i&gt;command&lt;/i&gt;" style="edgeStyle=orthogonalEdgeStyle;curved=0;rounded=1;sketch=0;orthogonalLoop=1;jettySize=auto;html=1;exitX=0.5;exitY=1;exitDx=0;exitDy=0;fontColor=#143642;strokeColor=#A8201A;fillColor=#FAE5C7;entryX=0.5;entryY=0;entryDx=0;entryDy=0;" parent="OOd3J3-Gxl5Cu8NG0Uni-1" target="JXZbbuT-8OM8TC3y9X0U-0" edge="1">
          <mxGeometry relative="1" as="geometry">
            <mxPoint x="-424.86" y="460" as="sourcePoint" />
            <mxPoint x="-424.89571428571423" y="490" as="targetPoint" />
          </mxGeometry>
        </mxCell>
        <mxCell id="-UsF7wl5NZM5rKmS7TcJ-0" value="&lt;b&gt;parse&lt;/b&gt;(&lt;i&gt;message&lt;/i&gt;)" style="shape=process;whiteSpace=wrap;html=1;backgroundOutline=1;rounded=0;sketch=0;fontColor=#143642;strokeColor=#0F8B8D;fillColor=#FAE5C7;" parent="OOd3J3-Gxl5Cu8NG0Uni-1" vertex="1">
          <mxGeometry x="-499.87" y="420" width="150" height="40" as="geometry" />
        </mxCell>
        <mxCell id="GCGXlIYydK_MN56B1ds3-8" style="edgeStyle=orthogonalEdgeStyle;curved=0;rounded=1;sketch=0;orthogonalLoop=1;jettySize=auto;html=1;exitX=0.5;exitY=1;exitDx=0;exitDy=0;entryX=1;entryY=0.5;entryDx=0;entryDy=0;fontSize=11;fontColor=#143642;strokeColor=#A8201A;fillColor=#FAE5C7;" parent="OOd3J3-Gxl5Cu8NG0Uni-1" source="JXZbbuT-8OM8TC3y9X0U-0" target="GCGXlIYydK_MN56B1ds3-0" edge="1">
          <mxGeometry relative="1" as="geometry">
            <Array as="points">
              <mxPoint x="-425" y="560" />
              <mxPoint x="-320" y="560" />
              <mxPoint x="-320" y="200" />
            </Array>
          </mxGeometry>
        </mxCell>
        <mxCell id="JXZbbuT-8OM8TC3y9X0U-0" value="&lt;b&gt;Execute&lt;/b&gt; &lt;i&gt;command&lt;/i&gt;" style="rounded=0;whiteSpace=wrap;html=1;sketch=0;fontColor=#143642;strokeColor=#0F8B8D;fillColor=#FAE5C7;" parent="OOd3J3-Gxl5Cu8NG0Uni-1" vertex="1">
          <mxGeometry x="-499.87" y="500" width="150" height="40" as="geometry" />
        </mxCell>
        <mxCell id="GCGXlIYydK_MN56B1ds3-6" style="edgeStyle=orthogonalEdgeStyle;curved=0;rounded=1;sketch=0;orthogonalLoop=1;jettySize=auto;html=1;exitX=1;exitY=0.5;exitDx=0;exitDy=0;fontSize=11;fontColor=#143642;strokeColor=#A8201A;fillColor=#FAE5C7;entryX=0.5;entryY=0;entryDx=0;entryDy=0;" parent="OOd3J3-Gxl5Cu8NG0Uni-1" source="jfCumX3kVW6e_XWRjReg-0" target="2rlOimkvAiwXD3DDtxZt-7" edge="1">
          <mxGeometry relative="1" as="geometry">
            <mxPoint x="-425" y="360" as="targetPoint" />
            <Array as="points">
              <mxPoint x="-340" y="275" />
              <mxPoint x="-340" y="320" />
              <mxPoint x="-425" y="320" />
            </Array>
          </mxGeometry>
        </mxCell>
        <mxCell id="GCGXlIYydK_MN56B1ds3-9" value="No" style="edgeLabel;html=1;align=center;verticalAlign=middle;resizable=0;points=[];fontSize=11;fontColor=#143642;" parent="GCGXlIYydK_MN56B1ds3-6" vertex="1" connectable="0">
          <mxGeometry x="-0.91" y="-1" relative="1" as="geometry">
            <mxPoint x="7" y="-1" as="offset" />
          </mxGeometry>
        </mxCell>
        <mxCell id="GCGXlIYydK_MN56B1ds3-7" style="edgeStyle=orthogonalEdgeStyle;curved=0;rounded=1;sketch=0;orthogonalLoop=1;jettySize=auto;html=1;exitX=0;exitY=0.5;exitDx=0;exitDy=0;entryX=0;entryY=0.5;entryDx=0;entryDy=0;fontSize=11;fontColor=#143642;strokeColor=#A8201A;fillColor=#FAE5C7;" parent="OOd3J3-Gxl5Cu8NG0Uni-1" source="jfCumX3kVW6e_XWRjReg-0" target="GCGXlIYydK_MN56B1ds3-0" edge="1">
          <mxGeometry relative="1" as="geometry">
            <Array as="points">
              <mxPoint x="-510" y="275" />
              <mxPoint x="-510" y="200" />
            </Array>
          </mxGeometry>
        </mxCell>
        <mxCell id="GCGXlIYydK_MN56B1ds3-10" value="Yes" style="edgeLabel;html=1;align=center;verticalAlign=middle;resizable=0;points=[];fontSize=11;fontColor=#143642;" parent="GCGXlIYydK_MN56B1ds3-7" vertex="1" connectable="0">
          <mxGeometry x="-0.8895" y="-1" relative="1" as="geometry">
            <mxPoint x="-5" y="1" as="offset" />
          </mxGeometry>
        </mxCell>
        <mxCell id="jfCumX3kVW6e_XWRjReg-0" value="&lt;div&gt;&lt;i&gt;message_queue&lt;/i&gt;&lt;br&gt;&lt;/div&gt;&lt;div&gt;is empty?&lt;/div&gt;" style="rhombus;whiteSpace=wrap;html=1;rounded=0;sketch=0;fontColor=#143642;strokeColor=#0F8B8D;fillColor=#FAE5C7;" parent="OOd3J3-Gxl5Cu8NG0Uni-1" vertex="1">
          <mxGeometry x="-481.73" y="230" width="114.49" height="90" as="geometry" />
        </mxCell>
        <mxCell id="GCGXlIYydK_MN56B1ds3-1" style="edgeStyle=orthogonalEdgeStyle;curved=0;rounded=1;sketch=0;orthogonalLoop=1;jettySize=auto;html=1;exitX=0.5;exitY=1;exitDx=0;exitDy=0;entryX=0.5;entryY=0;entryDx=0;entryDy=0;fontSize=11;fontColor=#143642;strokeColor=#A8201A;fillColor=#FAE5C7;" parent="OOd3J3-Gxl5Cu8NG0Uni-1" source="GCGXlIYydK_MN56B1ds3-0" target="jfCumX3kVW6e_XWRjReg-0" edge="1">
          <mxGeometry relative="1" as="geometry" />
        </mxCell>
        <mxCell id="GCGXlIYydK_MN56B1ds3-0" value="" style="ellipse;whiteSpace=wrap;html=1;aspect=fixed;rounded=0;sketch=0;fontColor=#143642;strokeColor=#0F8B8D;fillColor=#FAE5C7;" parent="OOd3J3-Gxl5Cu8NG0Uni-1" vertex="1">
          <mxGeometry x="-435.25" y="190" width="20" height="20" as="geometry" />
        </mxCell>
        <mxCell id="GCGXlIYydK_MN56B1ds3-4" style="edgeStyle=orthogonalEdgeStyle;curved=0;rounded=1;sketch=0;orthogonalLoop=1;jettySize=auto;html=1;exitX=0.5;exitY=1;exitDx=0;exitDy=0;entryX=0.5;entryY=0;entryDx=0;entryDy=0;fontSize=11;fontColor=#143642;strokeColor=#A8201A;fillColor=#FAE5C7;" parent="OOd3J3-Gxl5Cu8NG0Uni-1" source="GCGXlIYydK_MN56B1ds3-2" target="GCGXlIYydK_MN56B1ds3-0" edge="1">
          <mxGeometry relative="1" as="geometry" />
        </mxCell>
        <mxCell id="GCGXlIYydK_MN56B1ds3-2" value="&lt;b&gt;Open &lt;/b&gt;&lt;i&gt;message_queue&lt;/i&gt;" style="rounded=0;whiteSpace=wrap;html=1;sketch=0;fontColor=#143642;strokeColor=#0F8B8D;fillColor=#FAE5C7;" parent="OOd3J3-Gxl5Cu8NG0Uni-1" vertex="1">
          <mxGeometry x="-500.75" y="130" width="150.25" height="40" as="geometry" />
        </mxCell>
      </root>
    </mxGraphModel>
  </diagram>
  <diagram id="4f6Uie3AF-I4fNni5Iz1" name="tCamera">
    <mxGraphModel dx="1350" dy="720" grid="1" gridSize="10" guides="1" tooltips="1" connect="1" arrows="1" fold="1" page="1" pageScale="1" pageWidth="850" pageHeight="1100" math="0" shadow="0">
      <root>
        <mxCell id="5-NnQqwGxLs_fdKorbuh-0" />
        <mxCell id="5-NnQqwGxLs_fdKorbuh-1" parent="5-NnQqwGxLs_fdKorbuh-0" />
        <mxCell id="5-NnQqwGxLs_fdKorbuh-2" value="" style="edgeStyle=orthogonalEdgeStyle;rounded=0;orthogonalLoop=1;jettySize=auto;html=1;strokeColor=#9C1E18;" edge="1" parent="5-NnQqwGxLs_fdKorbuh-1" source="5-NnQqwGxLs_fdKorbuh-3" target="5-NnQqwGxLs_fdKorbuh-38">
          <mxGeometry relative="1" as="geometry" />
        </mxCell>
        <mxCell id="5-NnQqwGxLs_fdKorbuh-3" value="&lt;b&gt;tCamera&lt;/b&gt;" style="ellipse;whiteSpace=wrap;html=1;fontFamily=Courier New;fillColor=#FAE5C7;strokeColor=#0F8B8D;fontColor=#143642;" vertex="1" parent="5-NnQqwGxLs_fdKorbuh-1">
          <mxGeometry x="145" y="41" width="130" height="50" as="geometry" />
        </mxCell>
        <mxCell id="5-NnQqwGxLs_fdKorbuh-4" style="edgeStyle=orthogonalEdgeStyle;curved=0;rounded=1;sketch=0;orthogonalLoop=1;jettySize=auto;html=1;exitX=0.5;exitY=1;exitDx=0;exitDy=0;entryX=0.5;entryY=0;entryDx=0;entryDy=0;fontFamily=Courier New;fontColor=#143642;strokeColor=#A8201A;fillColor=#FAE5C7;" edge="1" parent="5-NnQqwGxLs_fdKorbuh-1" source="5-NnQqwGxLs_fdKorbuh-5" target="5-NnQqwGxLs_fdKorbuh-7">
          <mxGeometry relative="1" as="geometry" />
        </mxCell>
        <mxCell id="5-NnQqwGxLs_fdKorbuh-5" value="&lt;div&gt;&lt;b&gt;setTimer&lt;/b&gt; (timSampleCam)&lt;br&gt;&lt;/div&gt;" style="rounded=0;whiteSpace=wrap;html=1;sketch=0;fontColor=#143642;strokeColor=#0F8B8D;fillColor=#FAE5C7;fontFamily=Courier New;" vertex="1" parent="5-NnQqwGxLs_fdKorbuh-1">
          <mxGeometry x="150" y="200" width="120" height="40" as="geometry" />
        </mxCell>
        <mxCell id="5-NnQqwGxLs_fdKorbuh-6" style="edgeStyle=orthogonalEdgeStyle;curved=0;rounded=1;sketch=0;orthogonalLoop=1;jettySize=auto;html=1;exitX=0.5;exitY=1;exitDx=0;exitDy=0;entryX=0.5;entryY=0;entryDx=0;entryDy=0;fontFamily=Courier New;fontColor=#143642;strokeColor=#A8201A;fillColor=#FAE5C7;" edge="1" parent="5-NnQqwGxLs_fdKorbuh-1" source="5-NnQqwGxLs_fdKorbuh-7" target="5-NnQqwGxLs_fdKorbuh-9">
          <mxGeometry relative="1" as="geometry" />
        </mxCell>
        <mxCell id="5-NnQqwGxLs_fdKorbuh-7" value="&lt;div&gt;&lt;b&gt;lock&lt;/b&gt;&lt;i&gt; mutCamera&lt;/i&gt;&lt;br&gt;&lt;/div&gt;" style="rounded=0;whiteSpace=wrap;html=1;sketch=0;fontColor=#143642;strokeColor=#0F8B8D;fillColor=#FAE5C7;fontFamily=Courier New;" vertex="1" parent="5-NnQqwGxLs_fdKorbuh-1">
          <mxGeometry x="150" y="280" width="120" height="40" as="geometry" />
        </mxCell>
        <mxCell id="5-NnQqwGxLs_fdKorbuh-8" value="" style="edgeStyle=orthogonalEdgeStyle;curved=0;rounded=1;sketch=0;orthogonalLoop=1;jettySize=auto;html=1;fontFamily=Courier New;fontColor=#143642;strokeColor=#A8201A;fillColor=#FAE5C7;" edge="1" parent="5-NnQqwGxLs_fdKorbuh-1" source="5-NnQqwGxLs_fdKorbuh-9" target="5-NnQqwGxLs_fdKorbuh-12">
          <mxGeometry relative="1" as="geometry" />
        </mxCell>
        <mxCell id="5-NnQqwGxLs_fdKorbuh-9" value="" style="ellipse;whiteSpace=wrap;html=1;aspect=fixed;rounded=0;sketch=0;fontColor=#143642;strokeColor=#0F8B8D;fillColor=#FAE5C7;" vertex="1" parent="5-NnQqwGxLs_fdKorbuh-1">
          <mxGeometry x="200" y="350" width="20" height="20" as="geometry" />
        </mxCell>
        <mxCell id="5-NnQqwGxLs_fdKorbuh-10" value="yes" style="edgeStyle=orthogonalEdgeStyle;curved=0;rounded=1;sketch=0;orthogonalLoop=1;jettySize=auto;html=1;fontFamily=Courier New;fontColor=#143642;strokeColor=#A8201A;fillColor=#FAE5C7;entryX=0.5;entryY=0;entryDx=0;entryDy=0;" edge="1" parent="5-NnQqwGxLs_fdKorbuh-1" source="5-NnQqwGxLs_fdKorbuh-12" target="5-NnQqwGxLs_fdKorbuh-40">
          <mxGeometry relative="1" as="geometry">
            <mxPoint x="210" y="520" as="targetPoint" />
          </mxGeometry>
        </mxCell>
        <mxCell id="5-NnQqwGxLs_fdKorbuh-11" value="no" style="edgeStyle=orthogonalEdgeStyle;rounded=1;sketch=0;orthogonalLoop=1;jettySize=auto;html=1;entryX=0;entryY=0.5;entryDx=0;entryDy=0;fontFamily=Courier New;fontColor=#143642;strokeColor=#A8201A;fillColor=#FAE5C7;" edge="1" parent="5-NnQqwGxLs_fdKorbuh-1" source="5-NnQqwGxLs_fdKorbuh-12" target="5-NnQqwGxLs_fdKorbuh-9">
          <mxGeometry x="-0.8039" relative="1" as="geometry">
            <Array as="points">
              <mxPoint x="80" y="440" />
              <mxPoint x="80" y="360" />
            </Array>
            <mxPoint as="offset" />
          </mxGeometry>
        </mxCell>
        <mxCell id="5-NnQqwGxLs_fdKorbuh-12" value="&lt;div&gt;&lt;b&gt;condCameraAcquire&lt;/b&gt;&lt;/div&gt;&lt;div&gt;notified?&lt;br&gt;&lt;/div&gt;" style="rhombus;whiteSpace=wrap;html=1;rounded=0;sketch=0;fontColor=#143642;strokeColor=#0F8B8D;fillColor=#FAE5C7;fontFamily=Courier New;" vertex="1" parent="5-NnQqwGxLs_fdKorbuh-1">
          <mxGeometry x="135" y="400" width="150" height="80" as="geometry" />
        </mxCell>
        <mxCell id="5-NnQqwGxLs_fdKorbuh-13" value="&lt;b&gt;1&lt;/b&gt;" style="ellipse;whiteSpace=wrap;html=1;aspect=fixed;rounded=0;sketch=0;fontColor=#143642;strokeColor=#0F8B8D;fillColor=#FAE5C7;" vertex="1" parent="5-NnQqwGxLs_fdKorbuh-1">
          <mxGeometry x="200" y="740" width="20" height="20" as="geometry" />
        </mxCell>
        <mxCell id="5-NnQqwGxLs_fdKorbuh-14" value="" style="edgeStyle=orthogonalEdgeStyle;rounded=0;sketch=0;orthogonalLoop=1;jettySize=auto;html=1;fontFamily=Courier New;fontColor=#143642;strokeColor=#A8201A;fillColor=#FAE5C7;" edge="1" parent="5-NnQqwGxLs_fdKorbuh-1" source="5-NnQqwGxLs_fdKorbuh-15" target="5-NnQqwGxLs_fdKorbuh-20">
          <mxGeometry relative="1" as="geometry" />
        </mxCell>
        <mxCell id="5-NnQqwGxLs_fdKorbuh-15" value="&lt;b&gt;1&lt;/b&gt;" style="ellipse;whiteSpace=wrap;html=1;aspect=fixed;rounded=0;sketch=0;fontColor=#143642;strokeColor=#0F8B8D;fillColor=#FAE5C7;" vertex="1" parent="5-NnQqwGxLs_fdKorbuh-1">
          <mxGeometry x="530" y="41" width="20" height="20" as="geometry" />
        </mxCell>
        <mxCell id="5-NnQqwGxLs_fdKorbuh-16" style="edgeStyle=orthogonalEdgeStyle;rounded=1;orthogonalLoop=1;jettySize=auto;html=1;entryX=1;entryY=0.5;entryDx=0;entryDy=0;strokeColor=#9C1E18;" edge="1" parent="5-NnQqwGxLs_fdKorbuh-1" source="5-NnQqwGxLs_fdKorbuh-17" target="5-NnQqwGxLs_fdKorbuh-31">
          <mxGeometry relative="1" as="geometry">
            <Array as="points">
              <mxPoint x="665" y="251" />
            </Array>
          </mxGeometry>
        </mxCell>
        <mxCell id="5-NnQqwGxLs_fdKorbuh-17" value="&lt;b&gt;searchParkingSpots&lt;/b&gt;" style="shape=process;whiteSpace=wrap;html=1;backgroundOutline=1;rounded=0;sketch=0;fontFamily=Courier New;fontColor=#143642;strokeColor=#0F8B8D;fillColor=#FAE5C7;" vertex="1" parent="5-NnQqwGxLs_fdKorbuh-1">
          <mxGeometry x="580" y="181" width="170" height="40" as="geometry" />
        </mxCell>
        <mxCell id="5-NnQqwGxLs_fdKorbuh-18" value="no" style="edgeStyle=orthogonalEdgeStyle;rounded=1;sketch=0;orthogonalLoop=1;jettySize=auto;html=1;entryX=0.5;entryY=0;entryDx=0;entryDy=0;fontFamily=Courier New;fontColor=#143642;strokeColor=#A8201A;fillColor=#FAE5C7;" edge="1" parent="5-NnQqwGxLs_fdKorbuh-1" source="5-NnQqwGxLs_fdKorbuh-20" target="5-NnQqwGxLs_fdKorbuh-17">
          <mxGeometry x="-0.5" relative="1" as="geometry">
            <Array as="points">
              <mxPoint x="665" y="141" />
            </Array>
            <mxPoint as="offset" />
          </mxGeometry>
        </mxCell>
        <mxCell id="5-NnQqwGxLs_fdKorbuh-19" value="yes" style="edgeStyle=orthogonalEdgeStyle;rounded=1;sketch=0;orthogonalLoop=1;jettySize=auto;html=1;fontFamily=Courier New;fontColor=#143642;strokeColor=#A8201A;fillColor=#FAE5C7;entryX=0;entryY=0.5;entryDx=0;entryDy=0;" edge="1" parent="5-NnQqwGxLs_fdKorbuh-1" source="5-NnQqwGxLs_fdKorbuh-20" target="5-NnQqwGxLs_fdKorbuh-31">
          <mxGeometry x="-0.8644" y="-1" relative="1" as="geometry">
            <Array as="points">
              <mxPoint x="420" y="141" />
              <mxPoint x="420" y="251" />
            </Array>
            <mxPoint as="offset" />
            <mxPoint x="400" y="221" as="targetPoint" />
          </mxGeometry>
        </mxCell>
        <mxCell id="5-NnQqwGxLs_fdKorbuh-20" value="park_coords stored?" style="rhombus;whiteSpace=wrap;html=1;rounded=0;sketch=0;fontColor=#143642;strokeColor=#0F8B8D;fillColor=#FAE5C7;fontFamily=Courier New;verticalAlign=middle;labelPosition=center;verticalLabelPosition=middle;align=center;" vertex="1" parent="5-NnQqwGxLs_fdKorbuh-1">
          <mxGeometry x="455" y="101" width="170" height="80" as="geometry" />
        </mxCell>
        <mxCell id="5-NnQqwGxLs_fdKorbuh-21" value="yes" style="edgeStyle=orthogonalEdgeStyle;rounded=1;sketch=0;orthogonalLoop=1;jettySize=auto;html=1;entryX=0.5;entryY=0;entryDx=0;entryDy=0;fontFamily=Courier New;fontColor=#143642;strokeColor=#A8201A;fillColor=#FAE5C7;" edge="1" parent="5-NnQqwGxLs_fdKorbuh-1" source="5-NnQqwGxLs_fdKorbuh-23" target="5-NnQqwGxLs_fdKorbuh-25">
          <mxGeometry x="-0.3684" relative="1" as="geometry">
            <Array as="points">
              <mxPoint x="680" y="381" />
            </Array>
            <mxPoint as="offset" />
          </mxGeometry>
        </mxCell>
        <mxCell id="5-NnQqwGxLs_fdKorbuh-22" value="no" style="edgeStyle=orthogonalEdgeStyle;rounded=1;sketch=0;orthogonalLoop=1;jettySize=auto;html=1;fontFamily=Courier New;fontColor=#143642;strokeColor=#A8201A;fillColor=#FAE5C7;entryX=0.5;entryY=0;entryDx=0;entryDy=0;" edge="1" parent="5-NnQqwGxLs_fdKorbuh-1" source="5-NnQqwGxLs_fdKorbuh-23" target="5-NnQqwGxLs_fdKorbuh-46">
          <mxGeometry x="-0.6053" relative="1" as="geometry">
            <Array as="points">
              <mxPoint x="418" y="381" />
              <mxPoint x="418" y="400" />
            </Array>
            <mxPoint as="offset" />
            <mxPoint x="440" y="410" as="targetPoint" />
          </mxGeometry>
        </mxCell>
        <mxCell id="5-NnQqwGxLs_fdKorbuh-23" value="points_coords = cars_coords?" style="rhombus;whiteSpace=wrap;html=1;rounded=0;sketch=0;fontColor=#143642;strokeColor=#0F8B8D;fillColor=#FAE5C7;fontFamily=Courier New;verticalAlign=middle;labelPosition=center;verticalLabelPosition=middle;align=center;" vertex="1" parent="5-NnQqwGxLs_fdKorbuh-1">
          <mxGeometry x="455" y="341" width="170" height="80" as="geometry" />
        </mxCell>
        <mxCell id="5-NnQqwGxLs_fdKorbuh-24" style="edgeStyle=orthogonalEdgeStyle;rounded=1;sketch=0;orthogonalLoop=1;jettySize=auto;html=1;entryX=1;entryY=0.5;entryDx=0;entryDy=0;fontFamily=Courier New;fontColor=#143642;strokeColor=#A8201A;fillColor=#FAE5C7;" edge="1" parent="5-NnQqwGxLs_fdKorbuh-1" source="5-NnQqwGxLs_fdKorbuh-25" target="5-NnQqwGxLs_fdKorbuh-27">
          <mxGeometry relative="1" as="geometry">
            <Array as="points">
              <mxPoint x="680" y="501" />
            </Array>
          </mxGeometry>
        </mxCell>
        <mxCell id="5-NnQqwGxLs_fdKorbuh-25" value="parking_spot &amp;lt;- OCCUPIED" style="rounded=0;whiteSpace=wrap;html=1;sketch=0;fontColor=#143642;strokeColor=#0F8B8D;fillColor=#FAE5C7;fontFamily=Courier New;" vertex="1" parent="5-NnQqwGxLs_fdKorbuh-1">
          <mxGeometry x="612.5" y="421" width="135" height="40" as="geometry" />
        </mxCell>
        <mxCell id="5-NnQqwGxLs_fdKorbuh-26" value="" style="edgeStyle=orthogonalEdgeStyle;rounded=1;orthogonalLoop=1;jettySize=auto;html=1;strokeColor=#9C1E18;" edge="1" parent="5-NnQqwGxLs_fdKorbuh-1" source="5-NnQqwGxLs_fdKorbuh-27" target="5-NnQqwGxLs_fdKorbuh-49">
          <mxGeometry relative="1" as="geometry" />
        </mxCell>
        <mxCell id="5-NnQqwGxLs_fdKorbuh-27" value="" style="ellipse;whiteSpace=wrap;html=1;aspect=fixed;rounded=0;sketch=0;fontColor=#143642;strokeColor=#0F8B8D;fillColor=#FAE5C7;" vertex="1" parent="5-NnQqwGxLs_fdKorbuh-1">
          <mxGeometry x="530" y="491" width="20" height="20" as="geometry" />
        </mxCell>
        <mxCell id="5-NnQqwGxLs_fdKorbuh-28" value="" style="edgeStyle=orthogonalEdgeStyle;rounded=0;sketch=0;orthogonalLoop=1;jettySize=auto;html=1;fontFamily=Courier New;fontColor=#143642;strokeColor=#A8201A;fillColor=#FAE5C7;" edge="1" parent="5-NnQqwGxLs_fdKorbuh-1" source="5-NnQqwGxLs_fdKorbuh-29" target="5-NnQqwGxLs_fdKorbuh-9">
          <mxGeometry relative="1" as="geometry" />
        </mxCell>
        <mxCell id="5-NnQqwGxLs_fdKorbuh-29" value="2" style="ellipse;whiteSpace=wrap;html=1;aspect=fixed;rounded=0;sketch=0;fontColor=#143642;strokeColor=#0F8B8D;fillColor=#FAE5C7;fontStyle=1" vertex="1" parent="5-NnQqwGxLs_fdKorbuh-1">
          <mxGeometry x="280" y="350" width="20" height="20" as="geometry" />
        </mxCell>
        <mxCell id="5-NnQqwGxLs_fdKorbuh-30" style="edgeStyle=orthogonalEdgeStyle;rounded=0;orthogonalLoop=1;jettySize=auto;html=1;exitX=0.5;exitY=1;exitDx=0;exitDy=0;entryX=0.5;entryY=0;entryDx=0;entryDy=0;strokeColor=#9C1E18;" edge="1" parent="5-NnQqwGxLs_fdKorbuh-1" source="5-NnQqwGxLs_fdKorbuh-31" target="5-NnQqwGxLs_fdKorbuh-44">
          <mxGeometry relative="1" as="geometry" />
        </mxCell>
        <mxCell id="5-NnQqwGxLs_fdKorbuh-31" value="" style="ellipse;whiteSpace=wrap;html=1;aspect=fixed;rounded=0;sketch=0;fontColor=#143642;strokeColor=#0F8B8D;fillColor=#FAE5C7;" vertex="1" parent="5-NnQqwGxLs_fdKorbuh-1">
          <mxGeometry x="530" y="241" width="20" height="20" as="geometry" />
        </mxCell>
        <mxCell id="5-NnQqwGxLs_fdKorbuh-32" value="" style="edgeStyle=orthogonalEdgeStyle;rounded=1;sketch=0;orthogonalLoop=1;jettySize=auto;html=1;fontFamily=Courier New;fontColor=#143642;strokeColor=#A8201A;fillColor=#FAE5C7;" edge="1" parent="5-NnQqwGxLs_fdKorbuh-1" source="5-NnQqwGxLs_fdKorbuh-33" target="5-NnQqwGxLs_fdKorbuh-34">
          <mxGeometry relative="1" as="geometry" />
        </mxCell>
        <mxCell id="5-NnQqwGxLs_fdKorbuh-33" value="&lt;b&gt;disableTimer &lt;/b&gt;(timCamMax)&lt;b&gt; &lt;/b&gt;" style="rounded=0;whiteSpace=wrap;html=1;sketch=0;fontColor=#143642;strokeColor=#0F8B8D;fillColor=#FAE5C7;fontFamily=Courier New;" vertex="1" parent="5-NnQqwGxLs_fdKorbuh-1">
          <mxGeometry x="480" y="800" width="120" height="40" as="geometry" />
        </mxCell>
        <mxCell id="5-NnQqwGxLs_fdKorbuh-34" value="2" style="ellipse;whiteSpace=wrap;html=1;aspect=fixed;rounded=0;sketch=0;fontColor=#143642;strokeColor=#0F8B8D;fillColor=#FAE5C7;fontStyle=1" vertex="1" parent="5-NnQqwGxLs_fdKorbuh-1">
          <mxGeometry x="530" y="860" width="20" height="20" as="geometry" />
        </mxCell>
        <mxCell id="5-NnQqwGxLs_fdKorbuh-35" value="" style="edgeStyle=orthogonalEdgeStyle;rounded=0;orthogonalLoop=1;jettySize=auto;html=1;strokeColor=#9C1E18;" edge="1" parent="5-NnQqwGxLs_fdKorbuh-1" source="5-NnQqwGxLs_fdKorbuh-36" target="5-NnQqwGxLs_fdKorbuh-42">
          <mxGeometry relative="1" as="geometry" />
        </mxCell>
        <mxCell id="5-NnQqwGxLs_fdKorbuh-36" value="&lt;b&gt;Unlock&lt;/b&gt; &lt;i&gt;mutCamera&lt;/i&gt;" style="rounded=0;whiteSpace=wrap;html=1;sketch=0;fontColor=#143642;strokeColor=#0F8B8D;fillColor=#FAE5C7;fontFamily=Courier New;" vertex="1" parent="5-NnQqwGxLs_fdKorbuh-1">
          <mxGeometry x="150" y="600" width="120" height="40" as="geometry" />
        </mxCell>
        <mxCell id="5-NnQqwGxLs_fdKorbuh-37" style="edgeStyle=orthogonalEdgeStyle;rounded=0;orthogonalLoop=1;jettySize=auto;html=1;exitX=0.5;exitY=1;exitDx=0;exitDy=0;entryX=0.5;entryY=0;entryDx=0;entryDy=0;strokeColor=#9C1E18;" edge="1" parent="5-NnQqwGxLs_fdKorbuh-1" source="5-NnQqwGxLs_fdKorbuh-38" target="5-NnQqwGxLs_fdKorbuh-5">
          <mxGeometry relative="1" as="geometry" />
        </mxCell>
        <mxCell id="5-NnQqwGxLs_fdKorbuh-38" value="&lt;b&gt;Init&lt;/b&gt; Camera Device" style="rounded=0;whiteSpace=wrap;html=1;sketch=0;fontColor=#143642;strokeColor=#0F8B8D;fillColor=#FAE5C7;fontFamily=Courier New;" vertex="1" parent="5-NnQqwGxLs_fdKorbuh-1">
          <mxGeometry x="150" y="121" width="120" height="40" as="geometry" />
        </mxCell>
        <mxCell id="5-NnQqwGxLs_fdKorbuh-39" value="" style="edgeStyle=orthogonalEdgeStyle;rounded=0;orthogonalLoop=1;jettySize=auto;html=1;strokeColor=#9C1E18;" edge="1" parent="5-NnQqwGxLs_fdKorbuh-1" source="5-NnQqwGxLs_fdKorbuh-40" target="5-NnQqwGxLs_fdKorbuh-36">
          <mxGeometry relative="1" as="geometry" />
        </mxCell>
        <mxCell id="5-NnQqwGxLs_fdKorbuh-40" value="frame &amp;lt;- &lt;b&gt;captureFrame&lt;/b&gt;" style="rounded=0;whiteSpace=wrap;html=1;sketch=0;fontColor=#143642;strokeColor=#0F8B8D;fillColor=#FAE5C7;fontFamily=Courier New;" vertex="1" parent="5-NnQqwGxLs_fdKorbuh-1">
          <mxGeometry x="150" y="520" width="120" height="40" as="geometry" />
        </mxCell>
        <mxCell id="5-NnQqwGxLs_fdKorbuh-41" style="edgeStyle=orthogonalEdgeStyle;rounded=0;orthogonalLoop=1;jettySize=auto;html=1;exitX=0.5;exitY=1;exitDx=0;exitDy=0;entryX=0.5;entryY=0;entryDx=0;entryDy=0;strokeColor=#9C1E18;" edge="1" parent="5-NnQqwGxLs_fdKorbuh-1" source="5-NnQqwGxLs_fdKorbuh-42" target="5-NnQqwGxLs_fdKorbuh-13">
          <mxGeometry relative="1" as="geometry" />
        </mxCell>
        <mxCell id="5-NnQqwGxLs_fdKorbuh-42" value="&lt;div&gt;&lt;b&gt;setTimer&lt;/b&gt;&lt;br&gt;&lt;/div&gt;&lt;div&gt;(timCamMax)&lt;/div&gt;" style="rounded=0;whiteSpace=wrap;html=1;sketch=0;fontColor=#143642;strokeColor=#0F8B8D;fillColor=#FAE5C7;fontFamily=Courier New;" vertex="1" parent="5-NnQqwGxLs_fdKorbuh-1">
          <mxGeometry x="150" y="680" width="120" height="40" as="geometry" />
        </mxCell>
        <mxCell id="5-NnQqwGxLs_fdKorbuh-43" style="edgeStyle=orthogonalEdgeStyle;rounded=0;orthogonalLoop=1;jettySize=auto;html=1;exitX=0.5;exitY=1;exitDx=0;exitDy=0;entryX=0.5;entryY=0;entryDx=0;entryDy=0;strokeColor=#9C1E18;" edge="1" parent="5-NnQqwGxLs_fdKorbuh-1" source="5-NnQqwGxLs_fdKorbuh-44" target="5-NnQqwGxLs_fdKorbuh-23">
          <mxGeometry relative="1" as="geometry" />
        </mxCell>
        <mxCell id="5-NnQqwGxLs_fdKorbuh-44" value="object_coords &amp;lt;- &lt;b&gt;detectCars&lt;/b&gt;(frame)" style="rounded=0;whiteSpace=wrap;html=1;sketch=0;fontColor=#143642;strokeColor=#0F8B8D;fillColor=#FAE5C7;fontFamily=Courier New;" vertex="1" parent="5-NnQqwGxLs_fdKorbuh-1">
          <mxGeometry x="440" y="280" width="200" height="40" as="geometry" />
        </mxCell>
        <mxCell id="5-NnQqwGxLs_fdKorbuh-45" style="edgeStyle=orthogonalEdgeStyle;rounded=1;orthogonalLoop=1;jettySize=auto;html=1;entryX=0;entryY=0.5;entryDx=0;entryDy=0;strokeColor=#9C1E18;" edge="1" parent="5-NnQqwGxLs_fdKorbuh-1" source="5-NnQqwGxLs_fdKorbuh-46" target="5-NnQqwGxLs_fdKorbuh-27">
          <mxGeometry relative="1" as="geometry">
            <Array as="points">
              <mxPoint x="418" y="501" />
            </Array>
          </mxGeometry>
        </mxCell>
        <mxCell id="5-NnQqwGxLs_fdKorbuh-46" value="parking_spot &amp;lt;-EMPTY" style="rounded=0;whiteSpace=wrap;html=1;sketch=0;fontColor=#143642;strokeColor=#0F8B8D;fillColor=#FAE5C7;fontFamily=Courier New;" vertex="1" parent="5-NnQqwGxLs_fdKorbuh-1">
          <mxGeometry x="350" y="420" width="135" height="40" as="geometry" />
        </mxCell>
        <mxCell id="5-NnQqwGxLs_fdKorbuh-47" value="no" style="edgeStyle=orthogonalEdgeStyle;rounded=1;orthogonalLoop=1;jettySize=auto;html=1;exitX=0;exitY=0.5;exitDx=0;exitDy=0;entryX=0.5;entryY=0;entryDx=0;entryDy=0;strokeColor=#9C1E18;" edge="1" parent="5-NnQqwGxLs_fdKorbuh-1" source="5-NnQqwGxLs_fdKorbuh-49" target="5-NnQqwGxLs_fdKorbuh-51">
          <mxGeometry x="-0.6429" relative="1" as="geometry">
            <mxPoint as="offset" />
          </mxGeometry>
        </mxCell>
        <mxCell id="5-NnQqwGxLs_fdKorbuh-48" value="yes" style="edgeStyle=orthogonalEdgeStyle;rounded=1;orthogonalLoop=1;jettySize=auto;html=1;entryX=1;entryY=0.5;entryDx=0;entryDy=0;strokeColor=#9C1E18;" edge="1" parent="5-NnQqwGxLs_fdKorbuh-1" source="5-NnQqwGxLs_fdKorbuh-49" target="5-NnQqwGxLs_fdKorbuh-55">
          <mxGeometry x="-0.8723" relative="1" as="geometry">
            <Array as="points">
              <mxPoint x="680" y="570" />
              <mxPoint x="680" y="750" />
            </Array>
            <mxPoint as="offset" />
          </mxGeometry>
        </mxCell>
        <mxCell id="5-NnQqwGxLs_fdKorbuh-49" value="&lt;div&gt;park[points_coords]=&lt;br&gt;&lt;/div&gt;&lt;div&gt;parking_spot?&lt;/div&gt;" style="rhombus;whiteSpace=wrap;html=1;rounded=0;sketch=0;fontColor=#143642;strokeColor=#0F8B8D;fillColor=#FAE5C7;fontFamily=Courier New;verticalAlign=middle;labelPosition=center;verticalLabelPosition=middle;align=center;" vertex="1" parent="5-NnQqwGxLs_fdKorbuh-1">
          <mxGeometry x="442.5" y="530" width="195" height="80" as="geometry" />
        </mxCell>
        <mxCell id="5-NnQqwGxLs_fdKorbuh-50" value="" style="edgeStyle=orthogonalEdgeStyle;rounded=1;orthogonalLoop=1;jettySize=auto;html=1;strokeColor=#9C1E18;" edge="1" parent="5-NnQqwGxLs_fdKorbuh-1" source="5-NnQqwGxLs_fdKorbuh-51" target="5-NnQqwGxLs_fdKorbuh-53">
          <mxGeometry relative="1" as="geometry" />
        </mxCell>
        <mxCell id="5-NnQqwGxLs_fdKorbuh-51" value="parks[points_coords] &amp;lt;- parking_spot" style="rounded=0;whiteSpace=wrap;html=1;sketch=0;fontColor=#143642;strokeColor=#0F8B8D;fillColor=#FAE5C7;fontFamily=Courier New;" vertex="1" parent="5-NnQqwGxLs_fdKorbuh-1">
          <mxGeometry x="340" y="610" width="145" height="40" as="geometry" />
        </mxCell>
        <mxCell id="5-NnQqwGxLs_fdKorbuh-52" style="edgeStyle=orthogonalEdgeStyle;rounded=1;orthogonalLoop=1;jettySize=auto;html=1;entryX=0;entryY=0.5;entryDx=0;entryDy=0;strokeColor=#9C1E18;" edge="1" parent="5-NnQqwGxLs_fdKorbuh-1" source="5-NnQqwGxLs_fdKorbuh-53" target="5-NnQqwGxLs_fdKorbuh-55">
          <mxGeometry relative="1" as="geometry">
            <Array as="points">
              <mxPoint x="413" y="750" />
            </Array>
          </mxGeometry>
        </mxCell>
        <mxCell id="5-NnQqwGxLs_fdKorbuh-53" value="&lt;b&gt;send message&lt;/b&gt;&lt;br&gt;(parks[points_coords])" style="rounded=0;whiteSpace=wrap;html=1;sketch=0;fontColor=#143642;strokeColor=#0F8B8D;fillColor=#FAE5C7;fontFamily=Courier New;" vertex="1" parent="5-NnQqwGxLs_fdKorbuh-1">
          <mxGeometry x="332.5" y="680" width="160" height="40" as="geometry" />
        </mxCell>
        <mxCell id="5-NnQqwGxLs_fdKorbuh-54" value="" style="edgeStyle=orthogonalEdgeStyle;rounded=1;orthogonalLoop=1;jettySize=auto;html=1;strokeColor=#9C1E18;" edge="1" parent="5-NnQqwGxLs_fdKorbuh-1" source="5-NnQqwGxLs_fdKorbuh-55" target="5-NnQqwGxLs_fdKorbuh-33">
          <mxGeometry relative="1" as="geometry" />
        </mxCell>
        <mxCell id="5-NnQqwGxLs_fdKorbuh-55" value="" style="ellipse;whiteSpace=wrap;html=1;aspect=fixed;rounded=0;sketch=0;fontColor=#143642;strokeColor=#0F8B8D;fillColor=#FAE5C7;" vertex="1" parent="5-NnQqwGxLs_fdKorbuh-1">
          <mxGeometry x="530" y="740" width="20" height="20" as="geometry" />
        </mxCell>
      </root>
    </mxGraphModel>
  </diagram>
  <diagram id="ditlhH9ERQG7qR6x2m--" name="search_parking_spots">
    <mxGraphModel dx="1350" dy="720" grid="1" gridSize="10" guides="1" tooltips="1" connect="1" arrows="1" fold="1" page="1" pageScale="1" pageWidth="850" pageHeight="1100" math="0" shadow="0">
      <root>
        <mxCell id="M6FkdwhkePPZQRX4qvL2-0" />
        <mxCell id="M6FkdwhkePPZQRX4qvL2-1" parent="M6FkdwhkePPZQRX4qvL2-0" />
        <mxCell id="M6FkdwhkePPZQRX4qvL2-2" style="edgeStyle=orthogonalEdgeStyle;rounded=0;sketch=0;orthogonalLoop=1;jettySize=auto;html=1;exitX=0.5;exitY=1;exitDx=0;exitDy=0;entryX=0.5;entryY=0;entryDx=0;entryDy=0;fontFamily=Courier New;fontColor=#143642;strokeColor=#A8201A;fillColor=#FAE5C7;" edge="1" parent="M6FkdwhkePPZQRX4qvL2-1" source="M6FkdwhkePPZQRX4qvL2-3" target="M6FkdwhkePPZQRX4qvL2-5">
          <mxGeometry relative="1" as="geometry" />
        </mxCell>
        <mxCell id="M6FkdwhkePPZQRX4qvL2-3" value="proc_image &amp;lt;- &lt;b&gt;greyScaleFilter&lt;/b&gt;(frame) " style="rounded=0;whiteSpace=wrap;html=1;sketch=0;fontColor=#143642;strokeColor=#0F8B8D;fillColor=#FAE5C7;fontFamily=Courier New;" vertex="1" parent="M6FkdwhkePPZQRX4qvL2-1">
          <mxGeometry x="264.53000000000003" y="120" width="190.32" height="40" as="geometry" />
        </mxCell>
        <mxCell id="M6FkdwhkePPZQRX4qvL2-4" style="edgeStyle=orthogonalEdgeStyle;rounded=0;sketch=0;orthogonalLoop=1;jettySize=auto;html=1;exitX=0.5;exitY=1;exitDx=0;exitDy=0;entryX=0.5;entryY=0;entryDx=0;entryDy=0;fontFamily=Courier New;fontColor=#143642;strokeColor=#A8201A;fillColor=#FAE5C7;" edge="1" parent="M6FkdwhkePPZQRX4qvL2-1" source="M6FkdwhkePPZQRX4qvL2-5" target="M6FkdwhkePPZQRX4qvL2-7">
          <mxGeometry relative="1" as="geometry" />
        </mxCell>
        <mxCell id="M6FkdwhkePPZQRX4qvL2-5" value="proc_image &amp;lt;- &lt;b&gt;cannyEdgeFilter&lt;/b&gt;(proc_image) " style="rounded=0;whiteSpace=wrap;html=1;sketch=0;fontColor=#143642;strokeColor=#0F8B8D;fillColor=#FAE5C7;fontFamily=Courier New;" vertex="1" parent="M6FkdwhkePPZQRX4qvL2-1">
          <mxGeometry x="245.76" y="200" width="227.82" height="40" as="geometry" />
        </mxCell>
        <mxCell id="M6FkdwhkePPZQRX4qvL2-6" style="edgeStyle=orthogonalEdgeStyle;rounded=0;sketch=0;orthogonalLoop=1;jettySize=auto;html=1;exitX=0.5;exitY=1;exitDx=0;exitDy=0;entryX=0.5;entryY=0;entryDx=0;entryDy=0;fontFamily=Courier New;fontColor=#143642;strokeColor=#A8201A;fillColor=#FAE5C7;" edge="1" parent="M6FkdwhkePPZQRX4qvL2-1" source="M6FkdwhkePPZQRX4qvL2-7" target="M6FkdwhkePPZQRX4qvL2-9">
          <mxGeometry relative="1" as="geometry" />
        </mxCell>
        <mxCell id="M6FkdwhkePPZQRX4qvL2-7" value="line_vect &amp;lt;- &lt;b&gt;houghLineTransfom&lt;/b&gt;(proc_image) " style="rounded=0;whiteSpace=wrap;html=1;sketch=0;fontColor=#143642;strokeColor=#0F8B8D;fillColor=#FAE5C7;fontFamily=Courier New;" vertex="1" parent="M6FkdwhkePPZQRX4qvL2-1">
          <mxGeometry x="239.69" y="280" width="239.69" height="40" as="geometry" />
        </mxCell>
        <mxCell id="M6FkdwhkePPZQRX4qvL2-8" style="edgeStyle=orthogonalEdgeStyle;rounded=0;sketch=0;orthogonalLoop=1;jettySize=auto;html=1;entryX=0.5;entryY=0;entryDx=0;entryDy=0;fontFamily=Courier New;fontColor=#143642;strokeColor=#A8201A;fillColor=#FAE5C7;" edge="1" parent="M6FkdwhkePPZQRX4qvL2-1" source="M6FkdwhkePPZQRX4qvL2-9" target="M6FkdwhkePPZQRX4qvL2-11">
          <mxGeometry relative="1" as="geometry" />
        </mxCell>
        <mxCell id="M6FkdwhkePPZQRX4qvL2-9" value="&lt;div&gt;park_coords &amp;lt;- &lt;b&gt;horizontalVerticalLinesInterseption&lt;/b&gt;&lt;/div&gt;&lt;div&gt;(line_vect)&lt;/div&gt;" style="rounded=0;whiteSpace=wrap;html=1;sketch=0;fontColor=#143642;strokeColor=#0F8B8D;fillColor=#FAE5C7;fontFamily=Courier New;" vertex="1" parent="M6FkdwhkePPZQRX4qvL2-1">
          <mxGeometry x="214.54" y="360" width="290.31" height="50" as="geometry" />
        </mxCell>
        <mxCell id="M6FkdwhkePPZQRX4qvL2-10" style="edgeStyle=orthogonalEdgeStyle;rounded=0;sketch=0;orthogonalLoop=1;jettySize=auto;html=1;exitX=0.5;exitY=1;exitDx=0;exitDy=0;fontFamily=Courier New;fontColor=#143642;strokeColor=#A8201A;fillColor=#FAE5C7;" edge="1" parent="M6FkdwhkePPZQRX4qvL2-1" source="M6FkdwhkePPZQRX4qvL2-11" target="M6FkdwhkePPZQRX4qvL2-14">
          <mxGeometry relative="1" as="geometry" />
        </mxCell>
        <mxCell id="M6FkdwhkePPZQRX4qvL2-11" value="&lt;b&gt;store&lt;/b&gt; park_coords" style="rounded=0;whiteSpace=wrap;html=1;sketch=0;fontColor=#143642;strokeColor=#0F8B8D;fillColor=#FAE5C7;fontFamily=Courier New;" vertex="1" parent="M6FkdwhkePPZQRX4qvL2-1">
          <mxGeometry x="284.83" y="440" width="149.69" height="40" as="geometry" />
        </mxCell>
        <mxCell id="M6FkdwhkePPZQRX4qvL2-12" style="edgeStyle=orthogonalEdgeStyle;rounded=0;sketch=0;orthogonalLoop=1;jettySize=auto;html=1;entryX=0.5;entryY=0;entryDx=0;entryDy=0;fontFamily=Courier New;fontColor=#143642;strokeColor=#A8201A;fillColor=#FAE5C7;" edge="1" parent="M6FkdwhkePPZQRX4qvL2-1" source="M6FkdwhkePPZQRX4qvL2-13" target="M6FkdwhkePPZQRX4qvL2-3">
          <mxGeometry relative="1" as="geometry" />
        </mxCell>
        <mxCell id="M6FkdwhkePPZQRX4qvL2-13" value="&lt;div&gt;start: &lt;br&gt;&lt;/div&gt;&lt;div&gt;&lt;div&gt;searchParkingSpots&lt;br&gt;&lt;/div&gt;&lt;/div&gt;" style="ellipse;whiteSpace=wrap;html=1;rounded=0;sketch=0;fontFamily=Courier New;fontColor=#143642;strokeColor=#0F8B8D;fillColor=#FAE5C7;fontStyle=1" vertex="1" parent="M6FkdwhkePPZQRX4qvL2-1">
          <mxGeometry x="283.83" y="30" width="152.42" height="50" as="geometry" />
        </mxCell>
        <mxCell id="M6FkdwhkePPZQRX4qvL2-14" value="end" style="ellipse;whiteSpace=wrap;html=1;rounded=0;sketch=0;fontFamily=Courier New;fontColor=#143642;strokeColor=#0F8B8D;fillColor=#FAE5C7;fontStyle=1" vertex="1" parent="M6FkdwhkePPZQRX4qvL2-1">
          <mxGeometry x="318.46" y="520" width="82.43" height="40" as="geometry" />
        </mxCell>
      </root>
    </mxGraphModel>
  </diagram>
</mxfile>
